<svg width="624" height="448" viewBox="0 0 624 448" fill="none" xmlns="http://www.w3.org/2000/svg">
<g clip-path="url(#clip0_1704_41630)">
<path d="M143.503 -294.554C138.243 -298.062 135.521 -303.883 135.409 -310.182C135.302 -316.487 137.908 -322.85 142.56 -327.774C147.213 -332.698 153.418 -335.661 159.718 -335.912C166.013 -336.158 171.98 -333.77 175.781 -328.717C175.781 -328.717 175.781 -328.717 175.781 -328.717C188.719 -311.957 199.761 -297.154 212.262 -280.635C224.195 -264.715 235.903 -248.827 247.304 -232.702C322.176 -136.515 344.83 14.8014 268.05 122.178C196.492 229.576 80.8221 294.359 -36.1803 332.254C-123.19 359.892 -213.753 373.07 -303.998 374.123C-323.907 374.347 -343.366 373.969 -363.247 373.012C-369.361 372.708 -375.197 370.134 -379.469 365.695C-383.741 361.259 -386.1 355.348 -386.025 349.232C-385.95 343.117 -383.449 337.265 -379.07 332.934C-374.691 328.601 -368.794 326.17 -362.674 326.015C-362.674 326.015 -362.674 326.015 -362.674 326.015C-343.61 325.526 -325.03 324.607 -306.084 323.244C-220.216 316.981 -135.359 301.851 -54.0848 276.037C55.1654 240.758 163.761 187.591 232.573 97.535C305.07 8.95524 295.909 -123.972 224.935 -216.89C214.183 -232.101 201.776 -246.254 188.104 -259.217C173.889 -272.746 159.995 -283.439 143.503 -294.554Z" fill="#18A111"/>
<path d="M739.903 -3.66261C746.494 -4.41091 752.428 -7.88409 756.417 -13.1937C760.407 -18.5045 762.122 -25.2388 761.188 -31.893C760.255 -38.5471 756.753 -44.5496 751.457 -48.558C746.16 -52.565 739.5 -54.2716 732.958 -53.1779C715.712 -50.316 699.774 -46.988 682.923 -42.7256C388.783 8.74379 244.814 396.034 427.955 624.063C441.116 641.956 454.88 659.469 469.262 676.618C480.283 689.73 491.492 702.491 503.489 715.382C507.747 720.061 513.915 721.863 520.158 721.008C526.406 720.148 532.302 716.592 536.463 711.233C540.624 705.873 542.609 699.281 541.894 693.014C541.176 686.754 537.901 681.225 532.314 678.259C518.314 670.953 505.259 662.481 492.948 652.598C476.849 639.699 462.319 624.56 450.021 607.832C278.024 392.26 423.62 35.9264 693.54 3.58813C709.148 0.434539 723.922 -1.84001 739.903 -3.66261Z" fill="#18A111"/>
<g clip-path="url(#clip1_1704_41630)">
<path opacity="0.15" d="M184.262 -296.318C519.389 72.3458 102.06 366.49 -387.03 323.244" stroke="white" stroke-linecap="round" stroke-dasharray="4 4"/>
<path opacity="0.15" d="M736.43 -28.4205C317.471 30.3465 252.604 490.828 517.901 696.82" stroke="white" stroke-linecap="round" stroke-dasharray="4 4"/>
</g>
</g>
<defs>
<clipPath id="clip0_1704_41630">
<rect width="624" height="448" fill="white"/>
</clipPath>
<clipPath id="clip1_1704_41630">
<rect width="624" height="448" fill="white"/>
</clipPath>
</defs>
</svg>
